<?xml version="1.0" encoding="UTF-8"?>
    <svg width="800" height="850" version="1.1" xmlns="http://www.w3.org/2000/svg">
    <style>
        .row { font: 14px Arial; fill: #64748b; }
        .score { font: bold 14px Arial; fill: #64748b; }
    </style>
    <text x="400" y="40" text-anchor="middle" font-size="20px" font-weight="bold" fill="#64748b">Channel Performance Overview</text><rect x="150" y="80" width="500" height="30" fill="#eee" rx="5"/><rect x="150" y="80" width="495.75" height="30" fill="#22c55e" rx="5"/>
        <text x="140" y="100" text-anchor="end" class="row">PrivateVPNs</text>
        <text x="660" y="100" text-anchor="start" class="score">99.2% (S:100%)</text><rect x="150" y="130" width="500" height="30" fill="#eee" rx="5"/><rect x="150" y="130" width="484.0" height="30" fill="#22c55e" rx="5"/>
        <text x="140" y="150" text-anchor="end" class="row">proxies.txt</text>
        <text x="660" y="150" text-anchor="start" class="score">96.8% (S:100%)</text><rect x="150" y="180" width="500" height="30" fill="#eee" rx="5"/><rect x="150" y="180" width="477.55" height="30" fill="#22c55e" rx="5"/>
        <text x="140" y="200" text-anchor="end" class="row">persianvpnhub</text>
        <text x="660" y="200" text-anchor="start" class="score">95.5% (S:100%)</text><rect x="150" y="230" width="500" height="30" fill="#eee" rx="5"/><rect x="150" y="230" width="472.35" height="30" fill="#22c55e" rx="5"/>
        <text x="140" y="250" text-anchor="end" class="row">Sub.txt</text>
        <text x="660" y="250" text-anchor="start" class="score">94.5% (S:100%)</text><rect x="150" y="280" width="500" height="30" fill="#eee" rx="5"/><rect x="150" y="280" width="465.7" height="30" fill="#22c55e" rx="5"/>
        <text x="140" y="300" text-anchor="end" class="row">meliproxyy</text>
        <text x="660" y="300" text-anchor="start" class="score">93.1% (S:100%)</text><rect x="150" y="330" width="500" height="30" fill="#eee" rx="5"/><rect x="150" y="330" width="451.04999999999995" height="30" fill="#22c55e" rx="5"/>
        <text x="140" y="350" text-anchor="end" class="row">xray_final.txt</text>
        <text x="660" y="350" text-anchor="start" class="score">90.2% (S:100%)</text><rect x="150" y="380" width="500" height="30" fill="#eee" rx="5"/><rect x="150" y="380" width="447.8" height="30" fill="#22c55e" rx="5"/>
        <text x="140" y="400" text-anchor="end" class="row">SOSkeyNET</text>
        <text x="660" y="400" text-anchor="start" class="score">89.6% (S:100%)</text><rect x="150" y="430" width="500" height="30" fill="#eee" rx="5"/><rect x="150" y="430" width="447.35" height="30" fill="#22c55e" rx="5"/>
        <text x="140" y="450" text-anchor="end" class="row">Sub.mahsa.xsparvin</text>
        <text x="660" y="450" text-anchor="start" class="score">89.5% (S:100%)</text><rect x="150" y="480" width="500" height="30" fill="#eee" rx="5"/><rect x="150" y="480" width="446.65" height="30" fill="#22c55e" rx="5"/>
        <text x="140" y="500" text-anchor="end" class="row">vless_lite.txt</text>
        <text x="660" y="500" text-anchor="start" class="score">89.3% (S:100%)</text><rect x="150" y="530" width="500" height="30" fill="#eee" rx="5"/><rect x="150" y="530" width="424.09999999999997" height="30" fill="#22c55e" rx="5"/>
        <text x="140" y="550" text-anchor="end" class="row">marambashi</text>
        <text x="660" y="550" text-anchor="start" class="score">84.8% (S:100%)</text><rect x="150" y="580" width="500" height="30" fill="#eee" rx="5"/><rect x="150" y="580" width="410.90000000000003" height="30" fill="#22c55e" rx="5"/>
        <text x="140" y="600" text-anchor="end" class="row">ar14n24b</text>
        <text x="660" y="600" text-anchor="start" class="score">82.2% (S:100%)</text><rect x="150" y="630" width="500" height="30" fill="#eee" rx="5"/><rect x="150" y="630" width="380.25" height="30" fill="#22c55e" rx="5"/>
        <text x="140" y="650" text-anchor="end" class="row">ir_configs.txt</text>
        <text x="660" y="650" text-anchor="start" class="score">76.0% (S:100%)</text><rect x="150" y="680" width="500" height="30" fill="#eee" rx="5"/><rect x="150" y="680" width="147.10000000000002" height="30" fill="#ef4444" rx="5"/>
        <text x="140" y="700" text-anchor="end" class="row">vless_universal.txt</text>
        <text x="660" y="700" text-anchor="start" class="score">29.4% (S:0%)</text><rect x="150" y="730" width="500" height="30" fill="#eee" rx="5"/><rect x="150" y="730" width="75.0" height="30" fill="#ef4444" rx="5"/>
        <text x="140" y="750" text-anchor="end" class="row">NetAccount</text>
        <text x="660" y="750" text-anchor="start" class="score">15.0% (S:0%)</text><rect x="150" y="780" width="500" height="30" fill="#eee" rx="5"/><rect x="150" y="780" width="75.0" height="30" fill="#ef4444" rx="5"/>
        <text x="140" y="800" text-anchor="end" class="row">DirectVPN</text>
        <text x="660" y="800" text-anchor="start" class="score">15.0% (S:0%)</text></svg>