<?xml version="1.0" encoding="UTF-8"?>
    <svg width="800" height="900" version="1.1" xmlns="http://www.w3.org/2000/svg">
    <style>
        .row { font: 14px Arial; fill: #64748b; }
        .score { font: bold 14px Arial; fill: #64748b; }
    </style>
    <text x="400" y="40" text-anchor="middle" font-size="20px" font-weight="bold" fill="#64748b">Channel Performance Overview</text><rect x="150" y="80" width="500" height="30" fill="#eee" rx="5"/><rect x="150" y="80" width="498.29999999999995" height="30" fill="#22c55e" rx="5"/>
        <text x="140" y="100" text-anchor="end" class="row">DirectVPN</text>
        <text x="660" y="100" text-anchor="start" class="score">99.7% (S:100%)</text><rect x="150" y="130" width="500" height="30" fill="#eee" rx="5"/><rect x="150" y="130" width="496.15000000000003" height="30" fill="#22c55e" rx="5"/>
        <text x="140" y="150" text-anchor="end" class="row">PrivateVPNs</text>
        <text x="660" y="150" text-anchor="start" class="score">99.2% (S:100%)</text><rect x="150" y="180" width="500" height="30" fill="#eee" rx="5"/><rect x="150" y="180" width="486.85" height="30" fill="#22c55e" rx="5"/>
        <text x="140" y="200" text-anchor="end" class="row">xray_final.txt</text>
        <text x="660" y="200" text-anchor="start" class="score">97.4% (S:100%)</text><rect x="150" y="230" width="500" height="30" fill="#eee" rx="5"/><rect x="150" y="230" width="482.29999999999995" height="30" fill="#22c55e" rx="5"/>
        <text x="140" y="250" text-anchor="end" class="row">configraygan</text>
        <text x="660" y="250" text-anchor="start" class="score">96.5% (S:100%)</text><rect x="150" y="280" width="500" height="30" fill="#eee" rx="5"/><rect x="150" y="280" width="479.09999999999997" height="30" fill="#22c55e" rx="5"/>
        <text x="140" y="300" text-anchor="end" class="row">NetAccount</text>
        <text x="660" y="300" text-anchor="start" class="score">95.8% (S:100%)</text><rect x="150" y="330" width="500" height="30" fill="#eee" rx="5"/><rect x="150" y="330" width="478.9" height="30" fill="#22c55e" rx="5"/>
        <text x="140" y="350" text-anchor="end" class="row">persianvpnhub</text>
        <text x="660" y="350" text-anchor="start" class="score">95.8% (S:100%)</text><rect x="150" y="380" width="500" height="30" fill="#eee" rx="5"/><rect x="150" y="380" width="477.65" height="30" fill="#22c55e" rx="5"/>
        <text x="140" y="400" text-anchor="end" class="row">meliproxyy</text>
        <text x="660" y="400" text-anchor="start" class="score">95.5% (S:100%)</text><rect x="150" y="430" width="500" height="30" fill="#eee" rx="5"/><rect x="150" y="430" width="475.15" height="30" fill="#22c55e" rx="5"/>
        <text x="140" y="450" text-anchor="end" class="row">wiki_tajrobe</text>
        <text x="660" y="450" text-anchor="start" class="score">95.0% (S:100%)</text><rect x="150" y="480" width="500" height="30" fill="#eee" rx="5"/><rect x="150" y="480" width="470.90000000000003" height="30" fill="#22c55e" rx="5"/>
        <text x="140" y="500" text-anchor="end" class="row">Sub.mahsa.xsparvin</text>
        <text x="660" y="500" text-anchor="start" class="score">94.2% (S:100%)</text><rect x="150" y="530" width="500" height="30" fill="#eee" rx="5"/><rect x="150" y="530" width="460.15" height="30" fill="#22c55e" rx="5"/>
        <text x="140" y="550" text-anchor="end" class="row">marambashi</text>
        <text x="660" y="550" text-anchor="start" class="score">92.0% (S:100%)</text><rect x="150" y="580" width="500" height="30" fill="#eee" rx="5"/><rect x="150" y="580" width="392.2" height="30" fill="#22c55e" rx="5"/>
        <text x="140" y="600" text-anchor="end" class="row">ar14n24b</text>
        <text x="660" y="600" text-anchor="start" class="score">78.4% (S:100%)</text><rect x="150" y="630" width="500" height="30" fill="#eee" rx="5"/><rect x="150" y="630" width="371.04999999999995" height="30" fill="#22c55e" rx="5"/>
        <text x="140" y="650" text-anchor="end" class="row">SOSkeyNET</text>
        <text x="660" y="650" text-anchor="start" class="score">74.2% (S:100%)</text><rect x="150" y="680" width="500" height="30" fill="#eee" rx="5"/><rect x="150" y="680" width="75.0" height="30" fill="#ef4444" rx="5"/>
        <text x="140" y="700" text-anchor="end" class="row">capoit</text>
        <text x="660" y="700" text-anchor="start" class="score">15.0% (S:0%)</text><rect x="150" y="730" width="500" height="30" fill="#eee" rx="5"/><rect x="150" y="730" width="75.0" height="30" fill="#ef4444" rx="5"/>
        <text x="140" y="750" text-anchor="end" class="row">tikvpnir</text>
        <text x="660" y="750" text-anchor="start" class="score">15.0% (S:0%)</text><rect x="150" y="780" width="500" height="30" fill="#eee" rx="5"/><rect x="150" y="780" width="75.0" height="30" fill="#ef4444" rx="5"/>
        <text x="140" y="800" text-anchor="end" class="row">hamedvpns</text>
        <text x="660" y="800" text-anchor="start" class="score">15.0% (S:0%)</text><rect x="150" y="830" width="500" height="30" fill="#eee" rx="5"/><rect x="150" y="830" width="75.0" height="30" fill="#ef4444" rx="5"/>
        <text x="140" y="850" text-anchor="end" class="row">prrofile_purple</text>
        <text x="660" y="850" text-anchor="start" class="score">15.0% (S:0%)</text></svg>